<?xml version="1.0" encoding="UTF-8" standalone="no"?>
<!-- Created with Inkscape (http://www.inkscape.org/) -->

<svg
   xmlns:dc="http://purl.org/dc/elements/1.1/"
   xmlns:cc="http://creativecommons.org/ns#"
   xmlns:rdf="http://www.w3.org/1999/02/22-rdf-syntax-ns#"
   xmlns:svg="http://www.w3.org/2000/svg"
   xmlns="http://www.w3.org/2000/svg"
   xmlns:sodipodi="http://sodipodi.sourceforge.net/DTD/sodipodi-0.dtd"
   xmlns:inkscape="http://www.inkscape.org/namespaces/inkscape"
   width="697.59277mm"
   height="169.71132mm"
   viewBox="0 0 697.59276 169.71132"
   version="1.1"
   id="svg8"
   inkscape:version="0.92.3 (2405546, 2018-03-11)"
   sodipodi:docname="constructing spatial network.svg">
  <defs
     id="defs2" />
  <sodipodi:namedview
     id="base"
     pagecolor="#ffffff"
     bordercolor="#666666"
     borderopacity="1.0"
     inkscape:pageopacity="0.0"
     inkscape:pageshadow="2"
     inkscape:zoom="0.35"
     inkscape:cx="1274.0383"
     inkscape:cy="340.72129"
     inkscape:document-units="mm"
     inkscape:current-layer="layer1"
     showgrid="false"
     showguides="false"
     inkscape:guide-bbox="true"
     fit-margin-top="0"
     fit-margin-left="0"
     fit-margin-right="0"
     fit-margin-bottom="0"
     inkscape:window-width="1853"
     inkscape:window-height="1022"
     inkscape:window-x="67"
     inkscape:window-y="30"
     inkscape:window-maximized="1">
    <sodipodi:guide
       position="313.72023,15.875011"
       orientation="0,1"
       id="guide993"
       inkscape:locked="false" />
  </sodipodi:namedview>
  <metadata
     id="metadata5">
    <rdf:RDF>
      <cc:Work
         rdf:about="">
        <dc:format>image/svg+xml</dc:format>
        <dc:type
           rdf:resource="http://purl.org/dc/dcmitype/StillImage" />
        <dc:title></dc:title>
      </cc:Work>
    </rdf:RDF>
  </metadata>
  <g
     inkscape:label="Layer 1"
     inkscape:groupmode="layer"
     id="layer1"
     transform="translate(128.88988,-18.809523)">
    <path
       sodipodi:nodetypes="sssssssssssssssssssssssssssssssssssssssssssssssssssssssssssssssssssssssssssssssssssssssssssssssssssssssssssssssssssssssssssssssssssss"
       inkscape:connector-curvature="0"
       id="path897"
       d="m 243.26551,138.62801 c -0.23231,-0.46464 -0.32628,-0.99501 -0.37797,-1.51191 -0.0752,-0.7522 0.0419,-1.51307 0,-2.26785 -0.0842,-1.51481 -0.29142,-3.02104 -0.37798,-4.53572 -0.4964,-8.68698 -0.65126,-17.39229 -1.13393,-26.08037 -0.0981,-1.76567 -0.27988,-3.52602 -0.37797,-5.29168 -0.0352,-0.63397 -0.34391,-1.52894 0.37797,-1.88988 0.35636,-0.17818 0.76088,-0.23808 1.13393,-0.37798 3.11897,-1.16961 1.03603,-0.59468 5.29167,-1.88988 1.75499,-0.53413 3.48679,-1.18374 5.29167,-1.5119 0.99167,-0.18031 2.01761,0.0592 3.0238,0 1.13894,-0.067 2.26341,-0.30208 3.40179,-0.37798 0.75428,-0.0503 1.51191,0 2.26786,0 0.37797,0 0.7611,0.0621 1.13392,0 0.39301,-0.0655 0.74741,-0.28131 1.13393,-0.37798 0.12224,-0.0306 0.27315,0.0699 0.37798,0 0.2965,-0.19768 0.50397,-0.50396 0.75595,-0.75595 1.40063,-1.40063 0.66902,-0.62339 2.64584,-3.02381 1.13835,-1.38228 2.26133,-2.77719 3.40178,-4.15774 1.25342,-1.51729 2.53056,-3.01494 3.77976,-4.53571 1.64867,-2.007074 3.23593,-4.064805 4.91369,-6.047619 1.09491,-1.293979 2.32423,-2.471302 3.40179,-3.779763 0.68899,-0.836638 1.19603,-1.813216 1.88988,-2.645834 0.57034,-0.684405 1.25992,-1.259918 1.88988,-1.889879 0.88195,-0.881945 1.67782,-1.859321 2.64584,-2.645833 1.97333,-1.603329 5.38169,-3.399457 7.55952,-4.535715 1.49865,-0.781905 2.95298,-1.674333 4.53571,-2.267858 1.31613,-0.49355 9.30151,-2.19833 10.20536,-2.267857 3.0149,-0.231915 6.04762,0 9.07143,0 10.57093,0 8.59841,-0.361043 19.27678,1.13393 7.21569,1.010195 7.64756,1.051086 13.22917,2.645833 1.26478,0.361366 2.52253,0.747087 3.77976,1.133928 0.3808,0.117169 0.79228,0.17299 1.13393,0.377976 0.30558,0.183345 0.50397,0.503972 0.75595,0.755954 0.25199,0.251987 0.50397,0.50397 0.75595,0.755951 0.25199,0.251986 0.56709,0.45376 0.75596,0.755952 0.7105,1.136813 2.22707,4.785595 2.64583,5.669642 0.60302,1.273038 1.31778,2.492537 1.88988,3.779764 0.56215,1.26484 1.59983,4.219306 1.88988,5.669642 0.0741,0.370632 0,0.755952 0,1.133928 0,0.50397 0.0713,1.012997 0,1.511905 -0.0563,0.394403 -0.25198,0.755953 -0.37797,1.133923 -0.126,0.37798 -0.1998,0.77758 -0.37798,1.13393 -0.97255,1.94511 -1.76765,2.5817 -3.02381,4.53572 -0.54929,0.85445 -0.97953,1.78073 -1.5119,2.64583 -1.17876,1.91549 -1.64681,1.83506 -1.88989,3.77976 -0.19399,1.5519 0.21462,2.62394 0.75596,4.15774 1.3988,3.96329 1.67578,4.08021 3.77976,7.93751 0.75595,1.38592 1.31512,2.89898 2.26786,4.15775 5.17623,6.83889 0.30159,0.029 4.53571,6.80358 0.57443,0.91908 1.308,1.73145 1.88988,2.64584 0.46102,0.72445 1.26722,2.66771 1.51191,3.40178 0.52373,1.57119 0.37797,2.54381 0.37797,4.15774 0,0.75595 0,1.5119 0,2.26785 0,0.50397 0.0625,1.01183 0,1.51191 -0.15906,1.27256 -0.73019,2.56855 -1.13393,3.77976 -0.12599,0.37798 -0.26852,0.75084 -0.37797,1.13393 -0.14271,0.49949 -0.17335,1.03443 -0.37798,1.5119 -0.82388,1.92238 -0.53652,0.4268 -1.5119,1.88989 -0.31255,0.46882 -0.45733,1.03409 -0.75596,1.5119 -0.33387,0.53421 -0.75595,1.00794 -1.13392,1.51191 -1.63576,2.18101 -1.17659,1.71724 -3.77977,4.15773 -3.61971,3.39347 -3.10319,2.8148 -7.18154,5.66965 -1.53663,1.07564 -4.47566,3.30463 -6.4256,4.15773 -1.09505,0.47909 -2.26786,0.75596 -3.40179,1.13393 -1.5119,0.50397 -3.0125,1.04323 -4.53571,1.51191 -4.51263,1.3885 -6.65749,1.85336 -11.33929,3.02381 -4.77535,1.19384 -9.57724,2.25318 -14.36309,3.40178 -1.5154,0.3637 -3.01805,0.77981 -4.53571,1.13393 -12.69863,2.96301 -0.99316,0.0575 -13.22917,3.02381 -6.96091,1.68749 -4.56168,1.01659 -10.58333,3.02381 -0.45812,0.15271 -2.28946,0.64439 -3.02381,1.13393 -0.14824,0.0988 -0.22973,0.27914 -0.37798,0.37797 -0.6978,0.46521 -1.57006,0.66873 -2.26785,1.13393 -0.29652,0.19768 -0.50397,0.50397 -0.75596,0.75596 -0.62152,0.62152 -1.2158,1.32815 -1.88988,1.88988 -0.48395,0.40329 -1.04106,0.7154 -1.5119,1.13393 -4.62114,4.10767 0.073,0.41842 -3.02381,2.64583 -0.51141,0.36784 -0.97172,0.80981 -1.51191,1.13393 -0.10804,0.0648 -0.26527,-0.0564 -0.37797,0 -0.15936,0.0797 -0.20512,0.33475 -0.37798,0.37797 -0.36669,0.0917 -0.75595,0 -1.13393,0 -0.25198,0 -0.50397,0 -0.75595,0 -1.00794,0 -2.01588,0 -3.02381,0 -0.50397,0 -1.01043,0.0502 -1.5119,0 -1.52515,-0.15255 -3.00925,-0.6172 -4.53572,-0.75595 -0.62737,-0.057 -1.26849,0.10357 -1.88988,0 -0.90476,-0.15079 -1.75599,-0.53349 -2.64583,-0.75595 -0.62326,-0.15581 -1.26663,-0.22216 -1.88988,-0.37798 -0.88985,-0.22246 -1.76389,-0.50397 -2.64584,-0.75595 -0.88194,-0.25199 -1.77567,-0.4659 -2.64583,-0.75595 -0.64367,-0.21456 -1.25992,-0.50397 -1.88988,-0.75595 -0.62996,-0.25199 -1.28303,-0.45252 -1.88988,-0.75596 -0.15938,-0.0797 -0.25199,-0.25198 -0.37798,-0.37797 -0.25199,-0.25199 -0.45945,-0.55828 -0.75595,-0.75596 -0.10484,-0.0699 -0.28889,0.0891 -0.37798,0 -0.0891,-0.0891 0,-0.25198 0,-0.37797 0,-0.25198 0,-0.50397 0,-0.75595 0,-0.88195 0,-1.76389 0,-2.64584 0,-0.43341 -0.0979,-1.12036 0,-1.5119 0.0683,-0.27332 0.32273,-0.4797 0.37798,-0.75595 0.0741,-0.37064 -0.0621,-0.7611 0,-1.13393 0.0655,-0.393 0.32163,-0.73951 0.37797,-1.13393 0.0713,-0.49891 -0.0625,-1.01183 0,-1.51191 0.0644,-0.51546 0.30452,-0.99764 0.37798,-1.5119 0.0534,-0.37418 -0.0621,-0.7611 0,-1.13393 0.0655,-0.393 0.31248,-0.74093 0.37798,-1.13393 0.0621,-0.37283 0,-0.75595 0,-1.13393 0,-0.88194 0,-1.76389 0,-2.64583 0,-0.2629 0.0683,-1.75319 0,-1.88988 -0.0797,-0.15937 -0.29829,-0.21861 -0.37798,-0.37798 -0.11878,-0.23756 0.11878,-1.27434 0,-1.5119 -0.0797,-0.15937 -0.29829,-0.21861 -0.37798,-0.37798 -0.12451,-0.24902 0.11652,-1.91832 0,-2.26786 -0.0564,-0.16903 -0.32163,-0.20893 -0.37797,-0.37797 -0.0797,-0.23906 0.0494,-0.50886 0,-0.75595 -0.0781,-0.39069 -0.29984,-0.74325 -0.37798,-1.13393 -0.0494,-0.24709 0.0494,-0.50886 0,-0.75596 -0.0781,-0.39068 -0.29984,-0.74324 -0.37798,-1.13392 -0.0494,-0.24709 0.0797,-0.5169 0,-0.75596 -0.0563,-0.16903 -0.29829,-0.2186 -0.37797,-0.37797 -0.15119,-0.30238 0.15119,-0.83155 0,-1.13393 -0.0797,-0.15937 -0.29829,-0.21861 -0.37798,-0.37798 -0.10252,-0.20504 0.10342,-1.40848 0,-1.5119 -0.0891,-0.0891 -0.28888,0.0891 -0.37797,0 -0.18899,-0.18899 0.18898,-0.94494 0,-1.13393 -0.0891,-0.0891 -0.28888,0.0891 -0.37798,0 -0.17818,-0.17818 0.17099,-0.57086 0,-0.75595 -1.203,-1.30222 0.17818,0.35636 -0.37797,-0.75595 -0.0797,-0.15937 -0.29829,-0.21861 -0.37798,-0.37798 -0.0563,-0.11269 0.0891,-0.28889 0,-0.37798 -0.0891,-0.0891 -0.28889,0.0891 -0.37798,0 -0.44545,-0.44544 -0.8522,-0.94844 -1.13393,-1.5119 z"
       style="fill:none;fill-rule:evenodd;stroke:#000000;stroke-width:1;stroke-linecap:butt;stroke-linejoin:miter;stroke-miterlimit:4;stroke-dasharray:none;stroke-opacity:1" />
    <circle
       r="4.7247024"
       cy="68.89138"
       cx="315.64801"
       id="circle899"
       style="fill:#000000;fill-opacity:0.87148593;stroke:none;stroke-width:1;stroke-miterlimit:4;stroke-dasharray:none;stroke-opacity:1" />
    <circle
       style="fill:#000000;fill-opacity:0.87148593;stroke:none;stroke-width:1;stroke-miterlimit:4;stroke-dasharray:none;stroke-opacity:1"
       id="circle901"
       cx="325.85336"
       cy="76.82888"
       r="4.7247024" />
    <circle
       r="4.7247024"
       cy="118.78424"
       cx="275.20456"
       id="circle903"
       style="fill:#000000;fill-opacity:0.87148593;stroke:none;stroke-width:1;stroke-miterlimit:4;stroke-dasharray:none;stroke-opacity:1" />
    <circle
       style="fill:#000000;fill-opacity:0.87148593;stroke:none;stroke-width:1;stroke-miterlimit:4;stroke-dasharray:none;stroke-opacity:1"
       id="circle905"
       cx="322.45157"
       cy="117.65028"
       r="4.7247024" />
    <circle
       r="4.7247024"
       cy="89.302086"
       cx="312.24622"
       id="circle907"
       style="fill:#000000;fill-opacity:0.87148593;stroke:none;stroke-width:1;stroke-miterlimit:4;stroke-dasharray:none;stroke-opacity:1" />
    <circle
       style="fill:#000000;fill-opacity:0.87148593;stroke:none;stroke-width:1;stroke-miterlimit:4;stroke-dasharray:none;stroke-opacity:1"
       id="circle909"
       cx="248.36806"
       cy="110.46875"
       r="4.7247024" />
    <circle
       r="4.7247024"
       cy="101.39732"
       cx="347.77597"
       id="circle911"
       style="fill:#000000;fill-opacity:0.87148593;stroke:none;stroke-width:1;stroke-miterlimit:4;stroke-dasharray:none;stroke-opacity:1" />
    <circle
       style="fill:#000000;fill-opacity:0.87148593;stroke:none;stroke-width:1;stroke-miterlimit:4;stroke-dasharray:none;stroke-opacity:1"
       id="circle913"
       cx="342.8623"
       cy="125.58778"
       r="4.7247024" />
    <path
       inkscape:connector-curvature="0"
       id="path915"
       d="m 247.80123,110.27979 27.97024,9.07144"
       style="fill:none;fill-rule:evenodd;stroke:#000000;stroke-width:1;stroke-linecap:butt;stroke-linejoin:miter;stroke-miterlimit:4;stroke-dasharray:none;stroke-opacity:1" />
    <path
       inkscape:connector-curvature="0"
       id="path917"
       d="m 315.45897,69.080362 10.58333,7.937499"
       style="fill:none;fill-rule:evenodd;stroke:#ff0000;stroke-width:1;stroke-linecap:butt;stroke-linejoin:miter;stroke-miterlimit:4;stroke-dasharray:none;stroke-opacity:1" />
    <path
       inkscape:connector-curvature="0"
       id="path919"
       d="m 315.45897,69.080362 -3.02381,20.78869"
       style="fill:none;fill-rule:evenodd;stroke:#ff0000;stroke-width:1;stroke-linecap:butt;stroke-linejoin:miter;stroke-miterlimit:4;stroke-dasharray:none;stroke-opacity:1" />
    <path
       inkscape:connector-curvature="0"
       id="path921"
       d="M 323.01849,117.46135 312.43516,89.869052"
       style="fill:none;fill-rule:evenodd;stroke:#ff0000;stroke-width:1;stroke-linecap:butt;stroke-linejoin:miter;stroke-miterlimit:4;stroke-dasharray:none;stroke-opacity:1" />
    <path
       inkscape:connector-curvature="0"
       id="path923"
       d="m 326.0423,77.017861 21.92262,24.946439 -4.91369,23.43455 -20.03274,-7.9375 24.94643,-15.49705"
       style="fill:none;fill-rule:evenodd;stroke:#ff0000;stroke-width:1;stroke-linecap:butt;stroke-linejoin:miter;stroke-miterlimit:4;stroke-dasharray:none;stroke-opacity:1" />
    <path
       inkscape:connector-curvature="0"
       id="path925"
       d="M 312.43516,89.869052 326.0423,77.017861"
       style="fill:none;fill-rule:evenodd;stroke:#ff0000;stroke-width:1;stroke-linecap:butt;stroke-linejoin:miter;stroke-miterlimit:4;stroke-dasharray:none;stroke-opacity:1" />
    <circle
       style="fill:#000000;fill-opacity:0.87148593;stroke:none;stroke-width:1;stroke-miterlimit:4;stroke-dasharray:none;stroke-opacity:1"
       id="circle927"
       cx="315.64801"
       cy="68.89138"
       r="4.7247024" />
    <circle
       r="4.7247024"
       cy="76.82888"
       cx="325.85336"
       id="circle929"
       style="fill:#000000;fill-opacity:0.87148593;stroke:none;stroke-width:1;stroke-miterlimit:4;stroke-dasharray:none;stroke-opacity:1" />
    <circle
       style="fill:#000000;fill-opacity:0.87148593;stroke:none;stroke-width:1;stroke-miterlimit:4;stroke-dasharray:none;stroke-opacity:1"
       id="circle931"
       cx="275.20456"
       cy="118.78424"
       r="4.7247024" />
    <circle
       r="4.7247024"
       cy="117.65028"
       cx="322.45157"
       id="circle933"
       style="fill:#000000;fill-opacity:0.87148593;stroke:none;stroke-width:1;stroke-miterlimit:4;stroke-dasharray:none;stroke-opacity:1" />
    <circle
       style="fill:#000000;fill-opacity:0.87148593;stroke:none;stroke-width:1;stroke-miterlimit:4;stroke-dasharray:none;stroke-opacity:1"
       id="circle935"
       cx="312.24622"
       cy="89.302086"
       r="4.7247024" />
    <circle
       r="4.7247024"
       cy="110.46875"
       cx="248.36806"
       id="circle937"
       style="fill:#000000;fill-opacity:0.87148593;stroke:none;stroke-width:1;stroke-miterlimit:4;stroke-dasharray:none;stroke-opacity:1" />
    <circle
       style="fill:#000000;fill-opacity:0.87148593;stroke:none;stroke-width:1;stroke-miterlimit:4;stroke-dasharray:none;stroke-opacity:1"
       id="circle939"
       cx="347.77597"
       cy="101.39732"
       r="4.7247024" />
    <circle
       r="4.7247024"
       cy="125.58778"
       cx="342.8623"
       id="circle941"
       style="fill:#000000;fill-opacity:0.87148593;stroke:none;stroke-width:1;stroke-miterlimit:4;stroke-dasharray:none;stroke-opacity:1" />
    <path
       style="fill:none;fill-rule:evenodd;stroke:#ff0000;stroke-width:1;stroke-linecap:butt;stroke-linejoin:miter;stroke-miterlimit:4;stroke-dasharray:none;stroke-opacity:1"
       d="m 247.80123,110.27979 27.97024,9.07144"
       id="path943"
       inkscape:connector-curvature="0" />
    <path
       style="fill:none;fill-rule:evenodd;stroke:#ff0000;stroke-width:1;stroke-linecap:butt;stroke-linejoin:miter;stroke-miterlimit:4;stroke-dasharray:none;stroke-opacity:1"
       d="m 315.45897,69.080362 10.58333,7.937499"
       id="path945"
       inkscape:connector-curvature="0" />
    <path
       style="fill:none;fill-rule:evenodd;stroke:#ff0000;stroke-width:1;stroke-linecap:butt;stroke-linejoin:miter;stroke-miterlimit:4;stroke-dasharray:none;stroke-opacity:1"
       d="m 315.45897,69.080362 -3.02381,20.78869"
       id="path947"
       inkscape:connector-curvature="0" />
    <path
       style="fill:none;fill-rule:evenodd;stroke:#ff0000;stroke-width:1;stroke-linecap:butt;stroke-linejoin:miter;stroke-miterlimit:4;stroke-dasharray:none;stroke-opacity:1"
       d="M 323.01849,117.46135 312.43516,89.869052"
       id="path949"
       inkscape:connector-curvature="0" />
    <path
       style="fill:none;fill-rule:evenodd;stroke:#ff0000;stroke-width:1;stroke-linecap:butt;stroke-linejoin:miter;stroke-miterlimit:4;stroke-dasharray:none;stroke-opacity:1"
       d="m 326.0423,77.017861 21.92262,24.946439 -4.91369,23.43455 -20.03274,-7.9375 24.94643,-15.49705"
       id="path951"
       inkscape:connector-curvature="0" />
    <path
       style="fill:none;fill-rule:evenodd;stroke:#ff0000;stroke-width:1;stroke-linecap:butt;stroke-linejoin:miter;stroke-miterlimit:4;stroke-dasharray:none;stroke-opacity:1"
       d="M 312.43516,89.869052 326.0423,77.017861"
       id="path953"
       inkscape:connector-curvature="0" />
    <rect
       style="fill:#000000;fill-opacity:0.07755103;stroke:none;stroke-width:1;stroke-miterlimit:4;stroke-dasharray:none;stroke-opacity:1"
       id="rect999"
       width="171.22322"
       height="169.71132"
       x="222.02315"
       y="18.809523" />
    <rect
       y="18.75902"
       x="222.02315"
       height="16.833149"
       width="171.22322"
       id="rect1025"
       style="fill:#000000;fill-opacity:0.07755103;stroke:none;stroke-width:1;stroke-miterlimit:4;stroke-dasharray:none;stroke-opacity:1" />
    <text
       id="text1013"
       y="30.300705"
       x="252.62106"
       style="font-style:normal;font-weight:normal;font-size:3.96875px;line-height:125%;font-family:sans-serif;letter-spacing:0px;word-spacing:0px;fill:#000000;fill-opacity:1;stroke:none;stroke-width:1;stroke-linecap:butt;stroke-linejoin:miter;stroke-miterlimit:4;stroke-dasharray:none;stroke-opacity:1"
       xml:space="preserve"><tspan
         style="font-size:7.76111126px;stroke-width:1;stroke-miterlimit:4;stroke-dasharray:none"
         y="30.300705"
         x="252.62106"
         id="tspan1011"
         sodipodi:role="line">Connect nearest neighbours</tspan></text>
    <rect
       y="18.809523"
       x="397.47971"
       height="169.71132"
       width="171.22322"
       id="rect1187"
       style="fill:#000000;fill-opacity:0.07755103;stroke:none;stroke-width:1.5;stroke-miterlimit:4;stroke-dasharray:none;stroke-opacity:1" />
    <rect
       style="fill:#000000;fill-opacity:0.07755103;stroke:none;stroke-width:1.5;stroke-miterlimit:4;stroke-dasharray:none;stroke-opacity:1"
       id="rect995"
       width="171.22322"
       height="169.71132"
       x="-128.88988"
       y="18.809523" />
    <path
       style="fill:none;fill-rule:evenodd;stroke:#000000;stroke-width:1;stroke-linecap:butt;stroke-linejoin:miter;stroke-miterlimit:4;stroke-dasharray:none;stroke-opacity:1"
       d="m -112.33468,138.55239 c -0.23231,-0.46464 -0.32628,-0.99501 -0.37797,-1.51191 -0.0752,-0.7522 0.0419,-1.51307 0,-2.26785 -0.0842,-1.51481 -0.29143,-3.02104 -0.37798,-4.53572 -0.49641,-8.68698 -0.65127,-17.39229 -1.13394,-26.08035 -0.0981,-1.76567 -0.27988,-3.52602 -0.37798,-5.291678 -0.0352,-0.63397 -0.3439,-1.52894 0.37798,-1.88988 0.35636,-0.17818 0.76088,-0.23808 1.13394,-0.37798 3.11898,-1.16961 1.03603,-0.59468 5.2917,-1.88988 1.755,-0.53413 3.4868,-1.18374 5.29169,-1.5119 0.99169,-0.18031 2.01763,0.0592 3.023833,0 1.13894,-0.067 2.26342,-0.30208 3.4018,-0.37798 0.75429,-0.0503 1.51192,0 2.267868,0 0.377976,0 0.761098,0.0621 1.133927,0 0.393005,-0.0655 0.74741,-0.28131 1.13393,-0.37798 0.122237,-0.0306 0.273141,0.0699 0.377976,0 0.296503,-0.19768 0.503965,-0.50396 0.755952,-0.75595 1.400629,-1.40063 0.669016,-0.62339 2.645833,-3.02381 1.13835,-1.38228 2.261332,-2.77719 3.401788,-4.15774 1.253417,-1.51729 2.530557,-3.01494 3.77976,-4.53571 1.64867,-2.007074 3.235928,-4.064805 4.913694,-6.047619 1.094905,-1.293979 2.32423,-2.471302 3.401787,-3.779763 0.688995,-0.836638 1.196033,-1.813216 1.889883,-2.645834 0.570338,-0.684405 1.259921,-1.259918 1.889882,-1.889879 0.881946,-0.881945 1.677821,-1.859321 2.645836,-2.645833 1.97333,-1.603329 5.381698,-3.399457 7.559528,-4.535715 1.49865,-0.781905 2.95298,-1.674333 4.53571,-2.267858 1.31613,-0.49355 9.30151,-2.19833 10.20536,-2.267857 3.0149,-0.231915 6.04762,0 9.07143,0 10.57093,0 8.59841,-0.361043 19.27678,1.13393 7.2156899,1.010195 7.6475599,1.051086 13.2291683,2.645833 1.26477896,0.361366 2.52252846,0.747087 3.7797579,1.133928 0.3807997,0.117169 0.7922794,0.17299 1.1339294,0.377976 0.3055797,0.183345 0.5039697,0.503972 0.7559494,0.755954 0.25199,0.251987 0.5039697,0.50397 0.7559497,0.755951 0.2519896,0.251986 0.5670896,0.45376 0.7559593,0.755952 0.7104996,1.136813 2.2270687,4.785595 2.6458284,5.669642 0.6030197,1.273038 1.3177794,2.492537 1.8898791,3.779764 0.5621495,1.26484 1.5998295,4.219306 1.8898785,5.669642 0.0741,0.370632 0,0.755952 0,1.133928 0,0.50397 0.0713,1.012997 0,1.511905 -0.0563,0.394403 -0.251979,0.755953 -0.377969,1.133923 -0.126,0.37798 -0.1998,0.77758 -0.37798,1.13393 -0.9725498,1.94511 -1.7676492,2.5817 -3.0238086,4.53572 -0.5492897,0.85445 -0.9795294,1.78073 -1.5118991,2.64583 -1.1787593,1.91549 -1.646809,1.83506 -1.8898886,3.77976 -0.19399,1.5519 0.2146196,2.62394 0.7559593,4.15774 1.3987993,3.963288 1.675779,4.080208 3.7797578,7.937518 0.7559497,1.38591 1.3151192,2.89898 2.2678592,4.15774 5.176227,6.83887 0.301589,0.029 4.535707,6.80356 0.57443,0.91908 1.308,1.73145 1.88988,2.64584 0.46102,0.72445 1.26722,2.66771 1.51191,3.40178 0.52373,1.57119 0.37797,2.54381 0.37797,4.15774 0,0.75595 0,1.5119 0,2.26785 0,0.50397 0.0625,1.01183 0,1.51191 -0.15906,1.27256 -0.73019,2.56855 -1.13393,3.77976 -0.12599,0.37798 -0.26852,0.75084 -0.37797,1.13393 -0.14271,0.49949 -0.17335,1.03443 -0.37798,1.5119 -0.82388,1.92238 -0.53652,0.4268 -1.5119,1.88989 -0.31255,0.46882 -0.45733,1.03409 -0.75596,1.5119 -0.33387,0.53421 -0.75595,1.00794 -1.133919,1.51191 -1.635759,2.18101 -1.17659,1.71724 -3.779768,4.15773 -3.619708,3.39347 -3.1031883,2.8148 -7.1815357,5.66965 -1.5366291,1.07564 -4.4756576,3.30463 -6.4255964,4.15773 -1.0950494,0.47909 -2.267859,0.75596 -3.401789,1.13393 -1.5119,0.50397 -3.0125,1.04323 -4.5357099,1.51191 -4.51263,1.3885 -6.65749,1.85336 -11.33929,3.02381 -4.77535,1.19384 -9.57724,2.25318 -14.36309,3.40178 -1.5154,0.3637 -3.01805,0.77981 -4.53571,1.13393 -12.69863,2.96301 -0.99316,0.0575 -13.22917,3.02381 -6.960911,1.68749 -4.56168,1.01659 -10.583337,3.02381 -0.458115,0.15271 -2.289461,0.64439 -3.023811,1.13393 -0.14824,0.0988 -0.229725,0.27914 -0.377976,0.37797 -0.697807,0.46521 -1.570059,0.66873 -2.267858,1.13393 -0.296514,0.19768 -0.503968,0.50397 -0.755955,0.75596 -0.621519,0.62152 -1.215803,1.32815 -1.88988,1.88988 -0.48395,0.40329 -1.041064,0.7154 -1.511907,1.13393 -4.621135,4.10767 0.07295,0.41842 -3.02381,2.64583 -0.511409,0.36784 -0.971718,0.80981 -1.511907,1.13393 -0.108037,0.0648 -0.265275,-0.0564 -0.377976,0 -0.159359,0.0797 -0.20512,0.33475 -0.377977,0.37797 -0.366694,0.0917 -0.755952,0 -1.133927,0 -0.251985,0 -0.50397,0 -0.755955,0 -1.007936,0 -2.015873,0 -3.023809,0 -0.503967,0 -1.010431,0.0502 -1.511903,0 -1.525149,-0.15255 -3.009247,-0.6172 -4.535715,-0.75595 -0.62737,-0.057 -1.268491,0.10357 -1.889882,0 -0.904755,-0.15079 -1.755979,-0.53349 -2.645839,-0.75595 -0.62325,-0.15581 -1.26663,-0.22216 -1.88989,-0.37798 -0.88985,-0.22246 -1.7639,-0.50397 -2.645853,-0.75595 -0.88195,-0.25199 -1.77568,-0.4659 -2.64585,-0.75595 -0.64367,-0.21456 -1.25993,-0.50397 -1.88989,-0.75595 -0.62996,-0.25199 -1.28303,-0.45252 -1.88989,-0.75596 -0.15938,-0.0797 -0.25199,-0.25198 -0.37798,-0.37797 -0.25199,-0.25199 -0.45945,-0.55828 -0.75595,-0.75596 -0.10484,-0.0699 -0.28889,0.0891 -0.37798,0 -0.0891,-0.0891 0,-0.25198 0,-0.37797 0,-0.25198 0,-0.50397 0,-0.75595 0,-0.88195 0,-1.76389 0,-2.64584 0,-0.43341 -0.0979,-1.12036 0,-1.5119 0.0683,-0.27332 0.32272,-0.4797 0.37798,-0.75595 0.0741,-0.37064 -0.0621,-0.7611 0,-1.13393 0.0655,-0.393 0.32163,-0.73951 0.37797,-1.13393 0.0713,-0.49891 -0.0625,-1.01183 0,-1.51191 0.0644,-0.51546 0.30452,-0.99764 0.37798,-1.5119 0.0534,-0.37418 -0.0621,-0.7611 0,-1.13393 0.0655,-0.393 0.31248,-0.74093 0.37798,-1.13393 0.0621,-0.37283 0,-0.75595 0,-1.13393 0,-0.88194 0,-1.76389 0,-2.64583 0,-0.2629 0.0683,-1.75319 0,-1.88988 -0.0797,-0.15937 -0.29829,-0.21861 -0.37798,-0.37798 -0.11878,-0.23756 0.11878,-1.27434 0,-1.5119 -0.0797,-0.15937 -0.29829,-0.21861 -0.37798,-0.37798 -0.12451,-0.24902 0.11652,-1.91832 0,-2.26786 -0.0564,-0.16903 -0.32163,-0.20893 -0.37797,-0.37797 -0.0797,-0.23906 0.0494,-0.50886 0,-0.75595 -0.0781,-0.39069 -0.29985,-0.74325 -0.37798,-1.13393 -0.0494,-0.24709 0.0494,-0.50886 0,-0.75596 -0.0781,-0.39068 -0.29984,-0.74324 -0.37798,-1.13392 -0.0494,-0.24709 0.0797,-0.5169 0,-0.75596 -0.0563,-0.16903 -0.2983,-0.2186 -0.37798,-0.37797 -0.15119,-0.30238 0.15119,-0.83155 0,-1.13393 -0.0797,-0.15937 -0.29829,-0.21861 -0.37798,-0.37798 -0.10252,-0.20504 0.10342,-1.40848 0,-1.5119 -0.0891,-0.0891 -0.28888,0.0891 -0.37798,0 -0.18898,-0.18899 0.18899,-0.94494 0,-1.13393 -0.0891,-0.0891 -0.28888,0.0891 -0.37797,0 -0.17819,-0.17818 0.17098,-0.57086 0,-0.75595 -1.20301,-1.30222 0.17817,0.35636 -0.37798,-0.75595 -0.0797,-0.15937 -0.29829,-0.21861 -0.37798,-0.37798 -0.0563,-0.11269 0.0891,-0.28889 0,-0.37798 -0.0891,-0.0891 -0.28889,0.0891 -0.37798,0 -0.44545,-0.44544 -0.85221,-0.94844 -1.13394,-1.5119 z"
       id="path817"
       inkscape:connector-curvature="0"
       sodipodi:nodetypes="sssssssssssssssssssssssssssssssssssssssssssssssssssssssssssssssssssssssssssssssssssssssssssssssssssssssssssssssssssssssssssssssssssss" />
    <circle
       style="fill:#000000;fill-opacity:0.87148593;stroke:none;stroke-width:5.29166651;stroke-miterlimit:4;stroke-dasharray:none;stroke-opacity:1"
       id="path819"
       cx="-39.952114"
       cy="68.815781"
       r="4.7247024" />
    <circle
       r="4.7247024"
       cy="76.753281"
       cx="-29.746754"
       id="circle821"
       style="fill:#000000;fill-opacity:0.87148593;stroke:none;stroke-width:5.29166651;stroke-miterlimit:4;stroke-dasharray:none;stroke-opacity:1" />
    <circle
       style="fill:#000000;fill-opacity:0.87148593;stroke:none;stroke-width:5.29166651;stroke-miterlimit:4;stroke-dasharray:none;stroke-opacity:1"
       id="circle823"
       cx="-80.395599"
       cy="118.70863"
       r="4.7247024" />
    <circle
       r="4.7247024"
       cy="117.57463"
       cx="-33.14854"
       id="circle825"
       style="fill:#000000;fill-opacity:0.87148593;stroke:none;stroke-width:5.29166651;stroke-miterlimit:4;stroke-dasharray:none;stroke-opacity:1" />
    <circle
       style="fill:#000000;fill-opacity:0.87148593;stroke:none;stroke-width:5.29166651;stroke-miterlimit:4;stroke-dasharray:none;stroke-opacity:1"
       id="circle827"
       cx="-43.353897"
       cy="89.226486"
       r="4.7247024" />
    <circle
       r="4.7247024"
       cy="110.39314"
       cx="-107.2319"
       id="circle829"
       style="fill:#000000;fill-opacity:0.87148593;stroke:none;stroke-width:5.29166651;stroke-miterlimit:4;stroke-dasharray:none;stroke-opacity:1" />
    <circle
       style="fill:#000000;fill-opacity:0.87148593;stroke:none;stroke-width:5.29166651;stroke-miterlimit:4;stroke-dasharray:none;stroke-opacity:1"
       id="circle853"
       cx="-7.8241429"
       cy="101.32172"
       r="4.7247024" />
    <circle
       r="4.7247024"
       cy="125.51213"
       cx="-12.73783"
       id="circle855"
       style="fill:#000000;fill-opacity:0.87148593;stroke:none;stroke-width:5.29166651;stroke-miterlimit:4;stroke-dasharray:none;stroke-opacity:1" />
    <circle
       r="4.7247024"
       cy="118.70863"
       cx="-80.395599"
       id="circle873"
       style="fill:#000000;fill-opacity:0.87148593;stroke:none;stroke-width:5.29166651;stroke-miterlimit:4;stroke-dasharray:none;stroke-opacity:1" />
    <circle
       style="fill:#000000;fill-opacity:0.87148593;stroke:none;stroke-width:5.29166651;stroke-miterlimit:4;stroke-dasharray:none;stroke-opacity:1"
       id="circle875"
       cx="-33.14854"
       cy="117.57463"
       r="4.7247024" />
    <circle
       r="4.7247024"
       cy="89.226486"
       cx="-43.353897"
       id="circle877"
       style="fill:#000000;fill-opacity:0.87148593;stroke:none;stroke-width:5.29166651;stroke-miterlimit:4;stroke-dasharray:none;stroke-opacity:1" />
    <circle
       style="fill:#000000;fill-opacity:0.87148593;stroke:none;stroke-width:5.29166651;stroke-miterlimit:4;stroke-dasharray:none;stroke-opacity:1"
       id="circle879"
       cx="-107.2319"
       cy="110.39314"
       r="4.7247024" />
    <circle
       r="4.7247024"
       cy="101.32172"
       cx="-7.8241429"
       id="circle881"
       style="fill:#000000;fill-opacity:0.87148593;stroke:none;stroke-width:5.29166651;stroke-miterlimit:4;stroke-dasharray:none;stroke-opacity:1" />
    <circle
       style="fill:#000000;fill-opacity:0.87148593;stroke:none;stroke-width:5.29166651;stroke-miterlimit:4;stroke-dasharray:none;stroke-opacity:1"
       id="circle883"
       cx="-12.73783"
       cy="125.51213"
       r="4.7247024" />
    <text
       xml:space="preserve"
       style="font-style:normal;font-weight:normal;font-size:3.96875px;line-height:125%;font-family:sans-serif;letter-spacing:0px;word-spacing:0px;fill:#000000;fill-opacity:1;stroke:none;stroke-width:0.26458332px;stroke-linecap:butt;stroke-linejoin:miter;stroke-opacity:1"
       x="-86.186073"
       y="30.678652"
       id="text1003"><tspan
         sodipodi:role="line"
         id="tspan1001"
         x="-86.186073"
         y="30.678652"
         style="font-size:7.76111126px;stroke-width:0.26458332px">Fuel stations in region</tspan></text>
    <rect
       y="18.75902"
       x="-128.88988"
       height="16.833149"
       width="171.22322"
       id="rect1021"
       style="fill:#000000;fill-opacity:0.07755103;stroke:none;stroke-width:1.5;stroke-miterlimit:4;stroke-dasharray:none;stroke-opacity:1" />
    <rect
       y="18.809523"
       x="46.56665"
       height="169.71132"
       width="171.22322"
       id="rect997"
       style="fill:#000000;fill-opacity:0.07755103;stroke:none;stroke-width:1.5;stroke-miterlimit:4;stroke-dasharray:none;stroke-opacity:1" />
    <text
       xml:space="preserve"
       style="font-style:normal;font-weight:normal;font-size:3.96875px;line-height:125%;font-family:sans-serif;letter-spacing:0px;word-spacing:0px;fill:#ff0000;fill-opacity:1;stroke:none;stroke-width:0.26458332px;stroke-linecap:butt;stroke-linejoin:miter;stroke-opacity:1"
       x="165.80147"
       y="73.420753"
       id="text1017"><tspan
         sodipodi:role="line"
         id="tspan1015"
         x="165.80147"
         y="73.420753"
         style="font-style:italic;font-size:14.11111069px;fill:#ff0000;fill-opacity:1;stroke-width:0.26458332px">r</tspan></text>
    <circle
       r="31.499998"
       cy="68.815781"
       cx="131.04428"
       id="circle959"
       style="fill:#ff0000;fill-opacity:0.26938776;stroke:none;stroke-width:1.49999988;stroke-miterlimit:4;stroke-dasharray:none;stroke-opacity:1" />
    <path
       sodipodi:nodetypes="sssssssssssssssssssssssssssssssssssssssssssssssssssssssssssssssssssssssssssssssssssssssssssssssssssssssssssssssssssssssssssssssssssss"
       inkscape:connector-curvature="0"
       id="path961"
       d="m 58.661716,138.55239 c -0.23231,-0.46464 -0.32628,-0.99501 -0.37797,-1.51191 -0.0752,-0.7522 0.0419,-1.51307 0,-2.26785 -0.0842,-1.51481 -0.29143,-3.02104 -0.37798,-4.53572 -0.49641,-8.68698 -0.65127,-17.39229 -1.13394,-26.08035 -0.0981,-1.76567 -0.27988,-3.52602 -0.37798,-5.291678 -0.0352,-0.63397 -0.3439,-1.52894 0.37798,-1.88988 0.35636,-0.17818 0.76088,-0.23808 1.13394,-0.37798 3.11898,-1.16961 1.03603,-0.59468 5.2917,-1.88988 1.755,-0.53413 3.4868,-1.18374 5.29169,-1.5119 0.99169,-0.18031 2.01763,0.0592 3.023833,0 1.13894,-0.067 2.26342,-0.30208 3.4018,-0.37798 0.75429,-0.0503 1.51192,0 2.267868,0 0.377976,0 0.761098,0.0621 1.133927,0 0.393005,-0.0655 0.74741,-0.28131 1.13393,-0.37798 0.122237,-0.0306 0.273141,0.0699 0.377976,0 0.296503,-0.19768 0.503965,-0.50396 0.755952,-0.75595 1.400629,-1.40063 0.669016,-0.62339 2.645833,-3.02381 1.13835,-1.38228 2.261332,-2.77719 3.401788,-4.15774 1.253417,-1.51729 2.530557,-3.01494 3.77976,-4.53571 1.64867,-2.007074 3.235928,-4.064805 4.913694,-6.047619 1.094905,-1.293979 2.32423,-2.471302 3.401784,-3.779763 0.689,-0.836638 1.19604,-1.813216 1.889889,-2.645834 0.57033,-0.684405 1.25992,-1.259918 1.88988,-1.889879 0.88194,-0.881945 1.67782,-1.859321 2.64583,-2.645833 1.97333,-1.603329 5.3817,-3.399457 7.55953,-4.535715 1.49865,-0.781905 2.95298,-1.674333 4.53571,-2.267858 1.31613,-0.49355 9.30151,-2.19833 10.20536,-2.267857 3.0149,-0.231915 6.04762,0 9.07143,0 10.57093,0 8.59841,-0.361043 19.27678,1.13393 7.21569,1.010195 7.64756,1.051086 13.22917,2.645833 1.26478,0.361366 2.52253,0.747087 3.77976,1.133928 0.3808,0.117169 0.79228,0.17299 1.13393,0.377976 0.30558,0.183345 0.50397,0.503972 0.75595,0.755954 0.25199,0.251987 0.50397,0.50397 0.75595,0.755951 0.25199,0.251986 0.56709,0.45376 0.75596,0.755952 0.7105,1.136813 2.22707,4.785595 2.64582,5.669642 0.60302,1.273038 1.31778,2.492537 1.88988,3.779764 0.56215,1.26484 1.59983,4.219306 1.88988,5.669642 0.0741,0.370632 0,0.755952 0,1.133928 0,0.50397 0.0713,1.012997 0,1.511905 -0.0563,0.394403 -0.25198,0.755953 -0.37797,1.133923 -0.126,0.37798 -0.1998,0.77758 -0.37798,1.13393 -0.97255,1.94511 -1.76765,2.5817 -3.02381,4.53572 -0.54928,0.85445 -0.97952,1.78073 -1.51189,2.64583 -1.17876,1.91549 -1.64681,1.83506 -1.88989,3.77976 -0.19399,1.5519 0.21462,2.62394 0.75596,4.15774 1.3988,3.963288 1.67578,4.080208 3.77975,7.937518 0.75595,1.38591 1.31512,2.89898 2.26786,4.15774 5.17623,6.83887 0.30159,0.029 4.53571,6.80356 0.57443,0.91908 1.308,1.73145 1.88988,2.64584 0.46102,0.72445 1.26722,2.66771 1.51191,3.40178 0.52373,1.57119 0.37797,2.54381 0.37797,4.15774 0,0.75595 0,1.5119 0,2.26785 0,0.50397 0.0625,1.01183 0,1.51191 -0.15906,1.27256 -0.73019,2.56855 -1.13393,3.77976 -0.12599,0.37798 -0.26852,0.75084 -0.37797,1.13393 -0.14271,0.49949 -0.17335,1.03443 -0.37798,1.5119 -0.82388,1.92238 -0.53652,0.4268 -1.5119,1.88989 -0.31255,0.46882 -0.45733,1.03409 -0.75596,1.5119 -0.33387,0.53421 -0.75595,1.00794 -1.13392,1.51191 -1.63576,2.18101 -1.17659,1.71724 -3.77977,4.15773 -3.6197,3.39347 -3.10318,2.8148 -7.18153,5.66965 -1.53663,1.07564 -4.47566,3.30463 -6.4256,4.15773 -1.09505,0.47909 -2.26786,0.75596 -3.40179,1.13393 -1.5119,0.50397 -3.0125,1.04323 -4.53571,1.51191 -4.51263,1.3885 -6.65749,1.85336 -11.33929,3.02381 -4.77535,1.19384 -9.57724,2.25318 -14.36309,3.40178 -1.5154,0.3637 -3.01805,0.77981 -4.53571,1.13393 -12.69863,2.96301 -0.99316,0.0575 -13.22917,3.02381 -6.96091,1.68749 -4.56168,1.01659 -10.58333,3.02381 -0.45812,0.15271 -2.28947,0.64439 -3.02382,1.13393 -0.14824,0.0988 -0.22972,0.27914 -0.37797,0.37797 -0.69781,0.46521 -1.57006,0.66873 -2.26786,1.13393 -0.296509,0.19768 -0.503969,0.50397 -0.755949,0.75596 -0.62152,0.62152 -1.21581,1.32815 -1.889885,1.88988 -0.48395,0.40329 -1.041064,0.7154 -1.511907,1.13393 -4.621135,4.10767 0.07295,0.41842 -3.02381,2.64583 -0.511409,0.36784 -0.971718,0.80981 -1.511907,1.13393 -0.108037,0.0648 -0.265275,-0.0564 -0.377976,0 -0.159359,0.0797 -0.20512,0.33475 -0.377977,0.37797 -0.366694,0.0917 -0.755952,0 -1.133927,0 -0.251985,0 -0.50397,0 -0.755955,0 -1.007936,0 -2.015873,0 -3.023809,0 -0.503967,0 -1.010431,0.0502 -1.511903,0 -1.525149,-0.15255 -3.009247,-0.6172 -4.535715,-0.75595 -0.62737,-0.057 -1.268491,0.10357 -1.889882,0 -0.904755,-0.15079 -1.755979,-0.53349 -2.645839,-0.75595 -0.62325,-0.15581 -1.26663,-0.22216 -1.88989,-0.37798 -0.88985,-0.22246 -1.7639,-0.50397 -2.645853,-0.75595 -0.88195,-0.25199 -1.77568,-0.4659 -2.64585,-0.75595 -0.64367,-0.21456 -1.25993,-0.50397 -1.88989,-0.75595 -0.62996,-0.25199 -1.28303,-0.45252 -1.88989,-0.75596 -0.15938,-0.0797 -0.25199,-0.25198 -0.37798,-0.37797 -0.25199,-0.25199 -0.45945,-0.55828 -0.75595,-0.75596 -0.10484,-0.0699 -0.28889,0.0891 -0.37798,0 -0.0891,-0.0891 0,-0.25198 0,-0.37797 0,-0.25198 0,-0.50397 0,-0.75595 0,-0.88195 0,-1.76389 0,-2.64584 0,-0.43341 -0.0979,-1.12036 0,-1.5119 0.0683,-0.27332 0.32272,-0.4797 0.37798,-0.75595 0.0741,-0.37064 -0.0621,-0.7611 0,-1.13393 0.0655,-0.393 0.32163,-0.73951 0.37797,-1.13393 0.0713,-0.49891 -0.0625,-1.01183 0,-1.51191 0.0644,-0.51546 0.30452,-0.99764 0.37798,-1.5119 0.0534,-0.37418 -0.0621,-0.7611 0,-1.13393 0.0655,-0.393 0.31248,-0.74093 0.37798,-1.13393 0.0621,-0.37283 0,-0.75595 0,-1.13393 0,-0.88194 0,-1.76389 0,-2.64583 0,-0.2629 0.0683,-1.75319 0,-1.88988 -0.0797,-0.15937 -0.29829,-0.21861 -0.37798,-0.37798 -0.11878,-0.23756 0.11878,-1.27434 0,-1.5119 -0.0797,-0.15937 -0.29829,-0.21861 -0.37798,-0.37798 -0.12451,-0.24902 0.11652,-1.91832 0,-2.26786 -0.0564,-0.16903 -0.32163,-0.20893 -0.37797,-0.37797 -0.0797,-0.23906 0.0494,-0.50886 0,-0.75595 -0.0781,-0.39069 -0.29985,-0.74325 -0.37798,-1.13393 -0.0494,-0.24709 0.0494,-0.50886 0,-0.75596 -0.0781,-0.39068 -0.29984,-0.74324 -0.37798,-1.13392 -0.0494,-0.24709 0.0797,-0.5169 0,-0.75596 -0.0563,-0.16903 -0.2983,-0.2186 -0.37798,-0.37797 -0.15119,-0.30238 0.15119,-0.83155 0,-1.13393 -0.0797,-0.15937 -0.29829,-0.21861 -0.37798,-0.37798 -0.10252,-0.20504 0.10342,-1.40848 0,-1.5119 -0.0891,-0.0891 -0.28888,0.0891 -0.37798,0 -0.18898,-0.18899 0.18899,-0.94494 0,-1.13393 -0.0891,-0.0891 -0.28888,0.0891 -0.37797,0 -0.17819,-0.17818 0.17098,-0.57086 0,-0.75595 -1.20301,-1.30222 0.17817,0.35636 -0.37798,-0.75595 -0.0797,-0.15937 -0.29829,-0.21861 -0.37798,-0.37798 -0.0563,-0.11269 0.0891,-0.28889 0,-0.37798 -0.0891,-0.0891 -0.28889,0.0891 -0.37798,0 -0.44545,-0.44544 -0.85221,-0.94844 -1.13394,-1.5119 z"
       style="fill:none;fill-rule:evenodd;stroke:#000000;stroke-width:1;stroke-linecap:butt;stroke-linejoin:miter;stroke-miterlimit:4;stroke-dasharray:none;stroke-opacity:1" />
    <circle
       r="4.7247024"
       cy="68.815781"
       cx="131.04428"
       id="circle963"
       style="fill:#0000ff;fill-opacity:0.87148593;stroke:none;stroke-width:5.29166651;stroke-miterlimit:4;stroke-dasharray:none;stroke-opacity:1" />
    <circle
       style="fill:#000000;fill-opacity:0.87148593;stroke:none;stroke-width:5.29166651;stroke-miterlimit:4;stroke-dasharray:none;stroke-opacity:1"
       id="circle965"
       cx="141.24965"
       cy="76.753281"
       r="4.7247024" />
    <circle
       r="4.7247024"
       cy="118.70863"
       cx="90.6008"
       id="circle967"
       style="fill:#000000;fill-opacity:0.87148593;stroke:none;stroke-width:5.29166651;stroke-miterlimit:4;stroke-dasharray:none;stroke-opacity:1" />
    <circle
       style="fill:#000000;fill-opacity:0.87148593;stroke:none;stroke-width:5.29166651;stroke-miterlimit:4;stroke-dasharray:none;stroke-opacity:1"
       id="circle969"
       cx="137.84785"
       cy="117.57463"
       r="4.7247024" />
    <circle
       r="4.7247024"
       cy="89.226486"
       cx="127.6425"
       id="circle971"
       style="fill:#000000;fill-opacity:0.87148593;stroke:none;stroke-width:5.29166651;stroke-miterlimit:4;stroke-dasharray:none;stroke-opacity:1" />
    <circle
       style="fill:#000000;fill-opacity:0.87148593;stroke:none;stroke-width:5.29166651;stroke-miterlimit:4;stroke-dasharray:none;stroke-opacity:1"
       id="circle973"
       cx="63.764496"
       cy="110.39314"
       r="4.7247024" />
    <circle
       r="4.7247024"
       cy="101.32172"
       cx="163.17226"
       id="circle977"
       style="fill:#000000;fill-opacity:0.87148593;stroke:none;stroke-width:5.29166651;stroke-miterlimit:4;stroke-dasharray:none;stroke-opacity:1" />
    <circle
       style="fill:#000000;fill-opacity:0.87148593;stroke:none;stroke-width:5.29166651;stroke-miterlimit:4;stroke-dasharray:none;stroke-opacity:1"
       id="circle979"
       cx="158.25856"
       cy="125.51213"
       r="4.7247024" />
    <circle
       style="fill:#000000;fill-opacity:0.87148593;stroke:none;stroke-width:5.29166651;stroke-miterlimit:4;stroke-dasharray:none;stroke-opacity:1"
       id="circle981"
       cx="90.6008"
       cy="118.70863"
       r="4.7247024" />
    <circle
       r="4.7247024"
       cy="117.57463"
       cx="137.84785"
       id="circle983"
       style="fill:#000000;fill-opacity:0.87148593;stroke:none;stroke-width:5.29166651;stroke-miterlimit:4;stroke-dasharray:none;stroke-opacity:1" />
    <circle
       style="fill:#000000;fill-opacity:0.87148593;stroke:none;stroke-width:5.29166651;stroke-miterlimit:4;stroke-dasharray:none;stroke-opacity:1"
       id="circle985"
       cx="127.6425"
       cy="89.226486"
       r="4.7247024" />
    <circle
       r="4.7247024"
       cy="110.39314"
       cx="63.764496"
       id="circle987"
       style="fill:#000000;fill-opacity:0.87148593;stroke:none;stroke-width:5.29166651;stroke-miterlimit:4;stroke-dasharray:none;stroke-opacity:1" />
    <circle
       style="fill:#000000;fill-opacity:0.87148593;stroke:none;stroke-width:5.29166651;stroke-miterlimit:4;stroke-dasharray:none;stroke-opacity:1"
       id="circle989"
       cx="163.17226"
       cy="101.32172"
       r="4.7247024" />
    <circle
       r="4.7247024"
       cy="125.51213"
       cx="158.25856"
       id="circle991"
       style="fill:#000000;fill-opacity:0.87148593;stroke:none;stroke-width:5.29166651;stroke-miterlimit:4;stroke-dasharray:none;stroke-opacity:1" />
    <text
       id="text1007"
       y="31.056633"
       x="54.390934"
       style="font-style:normal;font-weight:normal;font-size:3.96875px;line-height:125%;font-family:sans-serif;letter-spacing:0px;word-spacing:0px;fill:#000000;fill-opacity:1;stroke:none;stroke-width:0.26458332px;stroke-linecap:butt;stroke-linejoin:miter;stroke-opacity:1"
       xml:space="preserve"><tspan
         style="font-size:7.76111126px;stroke-width:0.26458332px"
         y="31.056633"
         x="54.390934"
         id="tspan1005"
         sodipodi:role="line">Find nearest neighbours within radius, <tspan
   style="font-style:italic;font-size:7.76111126px"
   id="tspan1009">r</tspan></tspan></text>
    <path
       style="fill:none;fill-rule:evenodd;stroke:#ff0000;stroke-width:1.99999976;stroke-linecap:butt;stroke-linejoin:miter;stroke-miterlimit:4;stroke-dasharray:none;stroke-opacity:1"
       d="m 162.29494,68.886957 -31.51532,-0.18459"
       id="path1019"
       inkscape:connector-curvature="0" />
    <rect
       style="fill:#000000;fill-opacity:0.07755103;stroke:none;stroke-width:1.5;stroke-miterlimit:4;stroke-dasharray:none;stroke-opacity:1"
       id="rect1023"
       width="171.22322"
       height="16.833149"
       x="46.56665"
       y="18.75902" />
    <circle
       style="fill:#000000;fill-opacity:0.87148593;stroke:none;stroke-width:5.29166651;stroke-miterlimit:4;stroke-dasharray:none;stroke-opacity:1"
       id="circle1131"
       cx="491.10455"
       cy="68.89138"
       r="4.7247024" />
    <circle
       r="4.7247024"
       cy="76.82888"
       cx="501.30991"
       id="circle1133"
       style="fill:#000000;fill-opacity:0.87148593;stroke:none;stroke-width:5.29166651;stroke-miterlimit:4;stroke-dasharray:none;stroke-opacity:1" />
    <circle
       style="fill:#000000;fill-opacity:0.87148593;stroke:none;stroke-width:5.29166651;stroke-miterlimit:4;stroke-dasharray:none;stroke-opacity:1"
       id="circle1135"
       cx="450.6611"
       cy="118.78424"
       r="4.7247024" />
    <circle
       r="4.7247024"
       cy="117.65028"
       cx="497.90811"
       id="circle1137"
       style="fill:#000000;fill-opacity:0.87148593;stroke:none;stroke-width:5.29166651;stroke-miterlimit:4;stroke-dasharray:none;stroke-opacity:1" />
    <circle
       style="fill:#000000;fill-opacity:0.87148593;stroke:none;stroke-width:5.29166651;stroke-miterlimit:4;stroke-dasharray:none;stroke-opacity:1"
       id="circle1139"
       cx="487.70276"
       cy="89.302086"
       r="4.7247024" />
    <circle
       r="4.7247024"
       cy="110.46875"
       cx="423.82462"
       id="circle1141"
       style="fill:#000000;fill-opacity:0.87148593;stroke:none;stroke-width:5.29166651;stroke-miterlimit:4;stroke-dasharray:none;stroke-opacity:1" />
    <circle
       style="fill:#000000;fill-opacity:0.87148593;stroke:none;stroke-width:5.29166651;stroke-miterlimit:4;stroke-dasharray:none;stroke-opacity:1"
       id="circle1143"
       cx="523.23254"
       cy="101.39732"
       r="4.7247024" />
    <circle
       r="4.7247024"
       cy="125.58778"
       cx="518.31885"
       id="circle1145"
       style="fill:#000000;fill-opacity:0.87148593;stroke:none;stroke-width:5.29166651;stroke-miterlimit:4;stroke-dasharray:none;stroke-opacity:1" />
    <path
       style="fill:none;fill-rule:evenodd;stroke:#000000;stroke-width:0.39687499;stroke-linecap:butt;stroke-linejoin:miter;stroke-miterlimit:4;stroke-dasharray:none;stroke-opacity:1"
       d="m 423.25778,110.27979 27.97024,9.07144"
       id="path1147"
       inkscape:connector-curvature="0" />
    <path
       style="fill:none;fill-rule:evenodd;stroke:#ff0000;stroke-width:0.39687499;stroke-linecap:butt;stroke-linejoin:miter;stroke-miterlimit:4;stroke-dasharray:none;stroke-opacity:1"
       d="m 490.91552,69.080362 10.58333,7.937499"
       id="path1149"
       inkscape:connector-curvature="0" />
    <path
       style="fill:none;fill-rule:evenodd;stroke:#ff0000;stroke-width:0.39687499;stroke-linecap:butt;stroke-linejoin:miter;stroke-miterlimit:4;stroke-dasharray:none;stroke-opacity:1"
       d="m 490.91552,69.080362 -3.02381,20.78869"
       id="path1151"
       inkscape:connector-curvature="0" />
    <path
       style="fill:none;fill-rule:evenodd;stroke:#ff0000;stroke-width:0.39687499;stroke-linecap:butt;stroke-linejoin:miter;stroke-miterlimit:4;stroke-dasharray:none;stroke-opacity:1"
       d="M 498.47504,117.46135 487.89171,89.869052"
       id="path1153"
       inkscape:connector-curvature="0" />
    <path
       style="fill:none;fill-rule:evenodd;stroke:#ff0000;stroke-width:0.39687499;stroke-linecap:butt;stroke-linejoin:miter;stroke-miterlimit:4;stroke-dasharray:none;stroke-opacity:1"
       d="m 501.49885,77.017861 21.92262,24.946439 -4.91369,23.43455 -20.03274,-7.9375 24.94643,-15.49705"
       id="path1155"
       inkscape:connector-curvature="0" />
    <path
       style="fill:none;fill-rule:evenodd;stroke:#ff0000;stroke-width:0.39687499;stroke-linecap:butt;stroke-linejoin:miter;stroke-miterlimit:4;stroke-dasharray:none;stroke-opacity:1"
       d="M 487.89171,89.869052 501.49885,77.017861"
       id="path1157"
       inkscape:connector-curvature="0" />
    <circle
       r="4.7247024"
       cy="68.89138"
       cx="491.10455"
       id="circle1159"
       style="fill:#000000;fill-opacity:0.87148593;stroke:none;stroke-width:5.29166651;stroke-miterlimit:4;stroke-dasharray:none;stroke-opacity:1" />
    <circle
       style="fill:#000000;fill-opacity:0.87148593;stroke:none;stroke-width:5.29166651;stroke-miterlimit:4;stroke-dasharray:none;stroke-opacity:1"
       id="circle1161"
       cx="501.30991"
       cy="76.82888"
       r="4.7247024" />
    <circle
       r="4.7247024"
       cy="118.78424"
       cx="450.6611"
       id="circle1163"
       style="fill:#000000;fill-opacity:0.87148593;stroke:none;stroke-width:5.29166651;stroke-miterlimit:4;stroke-dasharray:none;stroke-opacity:1" />
    <circle
       style="fill:#000000;fill-opacity:0.87148593;stroke:none;stroke-width:5.29166651;stroke-miterlimit:4;stroke-dasharray:none;stroke-opacity:1"
       id="circle1165"
       cx="497.90811"
       cy="117.65028"
       r="4.7247024" />
    <circle
       r="4.7247024"
       cy="89.302086"
       cx="487.70276"
       id="circle1167"
       style="fill:#000000;fill-opacity:0.87148593;stroke:none;stroke-width:5.29166651;stroke-miterlimit:4;stroke-dasharray:none;stroke-opacity:1" />
    <circle
       style="fill:#000000;fill-opacity:0.87148593;stroke:none;stroke-width:5.29166651;stroke-miterlimit:4;stroke-dasharray:none;stroke-opacity:1"
       id="circle1169"
       cx="423.82462"
       cy="110.46875"
       r="4.7247024" />
    <circle
       r="4.7247024"
       cy="101.39732"
       cx="523.23254"
       id="circle1171"
       style="fill:#000000;fill-opacity:0.87148593;stroke:none;stroke-width:5.29166651;stroke-miterlimit:4;stroke-dasharray:none;stroke-opacity:1" />
    <circle
       style="fill:#000000;fill-opacity:0.87148593;stroke:none;stroke-width:5.29166651;stroke-miterlimit:4;stroke-dasharray:none;stroke-opacity:1"
       id="circle1173"
       cx="518.31885"
       cy="125.58778"
       r="4.7247024" />
    <path
       inkscape:connector-curvature="0"
       id="path1175"
       d="m 423.25778,110.27979 27.97024,9.07144"
       style="fill:none;fill-rule:evenodd;stroke:#ff0000;stroke-width:1.5;stroke-linecap:butt;stroke-linejoin:miter;stroke-miterlimit:4;stroke-dasharray:none;stroke-opacity:1" />
    <path
       inkscape:connector-curvature="0"
       id="path1177"
       d="m 490.91552,69.080362 10.58333,7.937499"
       style="fill:none;fill-rule:evenodd;stroke:#ff0000;stroke-width:1.5;stroke-linecap:butt;stroke-linejoin:miter;stroke-miterlimit:4;stroke-dasharray:none;stroke-opacity:1" />
    <path
       inkscape:connector-curvature="0"
       id="path1179"
       d="m 490.91552,69.080362 -3.02381,20.78869"
       style="fill:none;fill-rule:evenodd;stroke:#ff0000;stroke-width:1.5;stroke-linecap:butt;stroke-linejoin:miter;stroke-miterlimit:4;stroke-dasharray:none;stroke-opacity:1" />
    <path
       inkscape:connector-curvature="0"
       id="path1181"
       d="M 498.47504,117.46135 487.89171,89.869052"
       style="fill:none;fill-rule:evenodd;stroke:#ff0000;stroke-width:1.5;stroke-linecap:butt;stroke-linejoin:miter;stroke-miterlimit:4;stroke-dasharray:none;stroke-opacity:1" />
    <path
       inkscape:connector-curvature="0"
       id="path1183"
       d="m 501.49885,77.017861 21.92262,24.946439 -4.91369,23.43455 -20.03274,-7.9375 24.94643,-15.49705"
       style="fill:none;fill-rule:evenodd;stroke:#ff0000;stroke-width:1.5;stroke-linecap:butt;stroke-linejoin:miter;stroke-miterlimit:4;stroke-dasharray:none;stroke-opacity:1" />
    <path
       inkscape:connector-curvature="0"
       id="path1185"
       d="M 487.89171,89.869052 501.49885,77.017861"
       style="fill:none;fill-rule:evenodd;stroke:#ff0000;stroke-width:1.5;stroke-linecap:butt;stroke-linejoin:miter;stroke-miterlimit:4;stroke-dasharray:none;stroke-opacity:1" />
    <rect
       style="fill:#000000;fill-opacity:0.07755103;stroke:none;stroke-width:1.5;stroke-miterlimit:4;stroke-dasharray:none;stroke-opacity:1"
       id="rect1189"
       width="171.22322"
       height="16.833149"
       x="397.47971"
       y="18.75902" />
    <text
       xml:space="preserve"
       style="font-style:normal;font-weight:normal;font-size:3.96875px;line-height:125%;font-family:sans-serif;letter-spacing:0px;word-spacing:0px;fill:#000000;fill-opacity:1;stroke:none;stroke-width:0.26458332px;stroke-linecap:butt;stroke-linejoin:miter;stroke-opacity:1"
       x="401.64511"
       y="30.300705"
       id="text1193"><tspan
         sodipodi:role="line"
         id="tspan1191"
         x="401.64511"
         y="30.300705"
         style="font-size:7.76111126px;stroke-width:0.26458332px">Abstract to a network without geolocation</tspan></text>
    <text
       xml:space="preserve"
       style="font-style:normal;font-weight:normal;font-size:3.96875px;line-height:125%;font-family:sans-serif;letter-spacing:0px;word-spacing:0px;fill:#000000;fill-opacity:1;stroke:none;stroke-width:0.26458332px;stroke-linecap:butt;stroke-linejoin:miter;stroke-opacity:1"
       x="410.99454"
       y="142.32469"
       id="text1232"><tspan
         sodipodi:role="line"
         id="tspan1230"
         x="410.99454"
         y="142.32469"
         style="font-style:italic;font-size:6.3499999px;stroke-width:0.26458332px">Component 1</tspan></text>
    <text
       id="text1236"
       y="142.32469"
       x="489.03723"
       style="font-style:normal;font-weight:normal;font-size:3.96875px;line-height:125%;font-family:sans-serif;letter-spacing:0px;word-spacing:0px;fill:#000000;fill-opacity:1;stroke:none;stroke-width:0.26458332px;stroke-linecap:butt;stroke-linejoin:miter;stroke-opacity:1"
       xml:space="preserve"><tspan
         style="font-style:italic;font-size:6.3499999px;stroke-width:0.26458332px"
         y="142.32469"
         x="489.03723"
         id="tspan1234"
         sodipodi:role="line">Component 2</tspan></text>
  </g>
</svg>
